<?xml version="1.0" encoding="UTF-8" standalone="no"?>
<!-- Created with Inkscape (http://www.inkscape.org/) -->

<svg
   xmlns:dc="http://purl.org/dc/elements/1.1/"
   xmlns:cc="http://creativecommons.org/ns#"
   xmlns:rdf="http://www.w3.org/1999/02/22-rdf-syntax-ns#"
   xmlns:svg="http://www.w3.org/2000/svg"
   xmlns="http://www.w3.org/2000/svg"
   xmlns:sodipodi="http://sodipodi.sourceforge.net/DTD/sodipodi-0.dtd"
   xmlns:inkscape="http://www.inkscape.org/namespaces/inkscape"
   width="594mm"
   height="420mm"
   viewBox="0 0 594 420"
   version="1.1"
   id="svg8"
   inkscape:version="0.92.5 (2060ec1f9f, 2020-04-08)"
   sodipodi:docname="drawing.svg">
  <defs
     id="defs2" />
  <sodipodi:namedview
     id="base"
     pagecolor="#ffffff"
     bordercolor="#666666"
     borderopacity="1.0"
     inkscape:pageopacity="0.0"
     inkscape:pageshadow="2"
     inkscape:zoom="0.12"
     inkscape:cx="5137.1324"
     inkscape:cy="445.71429"
     inkscape:document-units="mm"
     inkscape:current-layer="layer1"
     showgrid="false"
     inkscape:window-width="1848"
     inkscape:window-height="1016"
     inkscape:window-x="72"
     inkscape:window-y="27"
     inkscape:window-maximized="1" />
  <metadata
     id="metadata5">
    <rdf:RDF>
      <cc:Work
         rdf:about="">
        <dc:format>image/svg+xml</dc:format>
        <dc:type
           rdf:resource="http://purl.org/dc/dcmitype/StillImage" />
        <dc:title></dc:title>
      </cc:Work>
    </rdf:RDF>
  </metadata>
  <g
     inkscape:label="Layer 1"
     inkscape:groupmode="layer"
     id="layer1"
     transform="translate(0,123)">
    <g
       style="clip-rule:evenodd;fill-rule:evenodd;image-rendering:optimizeQuality;shape-rendering:geometricPrecision;text-rendering:geometricPrecision"
       id="g420"
       transform="matrix(1.2930674,0,0,0.95959797,4.8198781,-118.14249)">
      <g
         id="Ebene_x0020_1">
  <metadata
   id="CorelCorpID_0Corel-Layer" />

  <path
   id="path334"
   d="m 529.446,117.843 h 26.5525 v 91.6715 c 0,20.934 1.21999,45.3567 35.5582,45.3567 34.3382,0 35.7139,-24.4226 35.7139,-45.3567 V 117.843 h 26.4017 v 100.55 c 0,40.2873 -24.7219,60.2704 -62.1155,60.2704 -37.2367,0 -62.1107,-19.9832 -62.1107,-60.2704 v -100.55 z"
   inkscape:connector-curvature="0"
   style="fill:#1f1a17" />

  <path
   id="path336"
   d="m 681.753,161.299 h 22.8949 v 16.6502 l 0.30409,0.47786 c 7.32474,-12.5281 19.8396,-20.3005 34.1862,-20.3005 23.806,0 38.7608,13.3221 38.7608,38.8561 v 78.032 h -24.1101 v -71.5279 c -0.46096,-17.7652 -7.1739,-25.5376 -21.3685,-25.5376 -16.1772,0 -26.5525,13.3269 -26.5525,29.9771 v 67.0884 h -24.1149 v -113.716 z"
   inkscape:connector-curvature="0"
   style="fill:#1f1a17" />

  <path
   id="path338"
   d="m 804.911,161.299 h 24.1149 V 275.015 H 804.911 Z m 0,-43.4561 h 24.1149 V 141.632 H 804.911 Z"
   inkscape:connector-curvature="0"
   style="fill:#1f1a17" />

  <polygon
   id="polygon340"
   points="885.187,275.015 845.355,161.299 871.605,161.299 899.382,248.526 899.837,248.526 926.547,161.299 951.577,161.299 912.353,275.015 "
   style="fill:#1f1a17" />

  <path
   id="path342"
   d="m 1014,177.949 h 0.7602 c 16.3292,0 26.7094,14.4335 27.4732,30.2933 H 1014 v 16.3389 h 52.3436 c 0.3077,-1.42754 0.3077,-2.85508 0.4598,-4.28383 v -7.93172 c -1.6798,-29.1783 -21.6713,-54.2393 -52.0431,-54.2393 h -0.7602 v 19.8227 z m 0,100.077 v -19.8227 h 1.372 c 13.8856,0 22.4352,-6.34489 26.7094,-18.873 h 22.8901 c -5.3421,24.9005 -25.6378,38.6956 -49.5995,38.6956 H 1014 Z m -28.085,-69.7842 c 0.6118,-16.8107 11.7522,-29.9723 28.085,-30.2933 v -19.8227 c -32.2023,0.47786 -52.3472,28.0717 -52.3472,59.9495 0,34.734 18.9249,59.3171 52.3472,59.9507 v -19.8227 c -19.2326,-0.63473 -28.085,-16.1784 -28.085,-33.6226 H 1014 v -16.3389 z"
   inkscape:connector-curvature="0"
   style="fill:#1f1a17" />

  <path
   id="path344"
   d="m 1085.72,161.299 h 22.5872 v 22.0442 h 0.4561 c 2.7465,-12.2107 17.2451,-25.2167 32.0515,-25.2167 5.493,0 7.0207,0.47786 9.1566,0.63352 v 24.2658 c -3.5116,-0.47665 -7.0219,-1.11018 -10.3801,-1.11018 -16.6333,0 -29.7563,13.9556 -29.7563,38.8549 v 54.2441 h -24.1149 v -113.716 z"
   inkscape:connector-curvature="0"
   style="fill:#1f1a17" />

  <path
   id="path346"
   d="m 1179.42,238.376 c 1.2236,14.594 11.9078,19.8275 24.5747,19.8275 9.1565,0 25.026,-1.9054 24.4178,-14.9113 -0.6118,-13.3221 -18.1598,-14.7496 -35.8647,-19.0286 -17.5492,-3.96646 -34.95,-10.3101 -34.95,-33.4657 0,-24.8993 25.7935,-32.6717 45.633,-32.6717 22.4352,0 42.7309,9.673 45.7815,35.0502 h -25.3337 c -1.9826,-11.8946 -11.5953,-15.2275 -22.1263,-15.2275 -7.0219,0 -19.8408,1.74491 -19.8408,11.7389 0,12.3712 17.7049,14.1161 35.4061,18.2382 17.7049,4.28262 35.4049,10.6275 35.4049,33.1496 0,27.1172 -26.2484,36.9507 -48.9877,36.9507 -27.3175,0 -47.921,-12.685 -48.3771,-39.6501 h 24.2622 z"
   inkscape:connector-curvature="0"
   style="fill:#1f1a17" />

  <path
   id="path348"
   d="m 1272.52,161.299 h 24.1137 V 275.015 H 1272.52 Z m 0,-43.4561 h 24.1137 V 141.632 H 1272.52 Z"
   inkscape:connector-curvature="0"
   style="fill:#1f1a17" />

  <path
   id="path350"
   d="m 1312.81,161.299 h 18.1598 v -34.261 h 24.267 v 34.261 h 21.8234 v 18.7161 h -21.8234 v 60.583 c 0,10.3101 0.7638,15.7005 11.5989,15.7005 3.3547,0 6.7129,0 10.2245,-0.95089 v 19.3496 c -5.3421,0.47786 -10.5322,1.42754 -15.7174,1.42754 -25.1829,0 -29.9168,-10.1497 -30.3729,-29.1819 v -66.9279 h -18.1598 v -18.7161 z"
   inkscape:connector-curvature="0"
   style="fill:#1f1a17" />

  <path
   id="path352"
   d="m 1462.83,236.631 c 0,14.7496 -14.1946,20.7772 -24.7267,21.5724 v 18.8718 c 9.9204,-1.74491 19.8408,-5.86703 26.7094,-12.8442 1.8318,10.3053 8.8524,13.7951 18.6208,13.7951 3.9665,0 11.5953,-1.58441 15.2577,-2.85146 v -17.4491 c -2.5908,0.47786 -4.4214,0.47786 -5.9491,0.47786 -4.4262,0 -5.8019,-2.37843 -5.8019,-8.56645 v -58.3614 c 0,-24.1101 -22.4304,-33.1496 -43.7988,-33.1496 -1.6785,0 -3.3582,0.15566 -5.038,0.15566 v 19.8275 l 3.5103,-0.16049 c 9.7684,0 22.7393,2.53892 22.7393,15.388 0,12.8442 -11.751,13.1616 -26.2496,15.067 v 15.5388 c 9.1614,-1.26705 18.4687,-1.7437 24.7267,-6.0227 v 18.7113 z m -15.1104,-117.204 v 23.7891 h 24.267 V 119.427 Z m -9.6163,138.777 h -2.4388 c -8.3963,0 -22.2831,-3.33294 -22.2831,-14.4335 0,-13.3221 9.4643,-17.2886 19.8408,-19.0335 1.5265,-0.31616 3.2063,-0.47303 4.8812,-0.79402 v -15.5388 c -2.1347,0.31616 -4.4214,0.63353 -6.713,1.11018 -20.2956,2.37843 -42.1226,6.81792 -42.1226,35.2058 0,22.3664 17.8569,33.3065 37.5444,33.3065 3.6623,0 7.4767,-0.31736 11.2911,-0.95089 v -18.8718 z m 0,-99.9218 v 19.8275 c -11.5953,0.95089 -19.6839,6.66105 -20.5998,17.9221 h -24.2658 c 1.6798,-27.2777 22.5872,-36.6382 44.8656,-37.7496 z m -2.5908,-15.0658 v -23.7891 h -24.1137 v 23.7891 z"
   inkscape:connector-curvature="0"
   style="fill:#1f1a17" />

  <path
   id="path354"
   d="m 1502.97,161.299 h 18.161 v -34.261 h 24.1149 v 34.261 h 21.8222 v 18.7161 h -21.8222 v 60.583 c 0,10.3101 0.9147,15.7005 11.751,15.7005 3.3583,0 6.7129,0 10.0712,-0.95089 v 19.3496 c -5.1889,0.47786 -10.3753,1.42754 -15.5654,1.42754 -25.3337,0 -29.912,-10.1497 -30.3717,-29.1819 v -66.9279 h -18.161 v -18.7161 z"
   inkscape:connector-curvature="0"
   style="fill:#1f1a17" />

  <path
   id="path356"
   d="m 1711.13,203.487 h 10.683 c 16.1784,0 25.4858,8.87899 25.4858,24.1065 0,15.8598 -9.3074,24.8993 -25.4858,24.8993 h -10.683 v 22.5221 h 6.8686 c 39.2206,0 55.8587,-19.1891 55.8587,-43.9328 0,-21.0945 -10.0773,-36.1615 -28.5412,-40.2837 v -0.47665 c 13.8868,-6.1844 21.6713,-17.6059 21.6713,-33.4621 0,-26.1712 -17.8569,-39.0166 -44.8704,-39.0166 h -10.9871 v 22.5221 h 7.1727 c 14.3466,0 22.1311,5.70654 22.1311,21.5676 0,14.1161 -9.4642,21.7281 -22.1311,21.7281 h -7.1727 v 19.8263 z m -36.17,0 h 36.17 v -19.8263 h -36.17 v -43.2956 h 36.17 V 117.843 h -62.5716 v 157.172 h 62.5716 v -22.5221 h -36.17 v -49.0058 z"
   inkscape:connector-curvature="0"
   style="fill:#1f1a17" />

  <path
   id="path358"
   d="m 1795.22,161.299 h 22.5872 v 22.0442 h 0.4598 c 2.7476,-12.2107 17.2451,-25.2167 32.0467,-25.2167 5.4941,0 7.0218,0.47786 9.1565,0.63352 v 24.2658 c -3.5103,-0.47665 -7.017,-1.11018 -10.3753,-1.11018 -16.6381,0 -29.7599,13.9556 -29.7599,38.8549 v 54.2441 h -24.1149 v -113.716 z"
   inkscape:connector-curvature="0"
   style="fill:#1f1a17" />

  <path
   id="path360"
   d="m 1913.96,177.949 h 0.6082 c 16.3292,0 26.7094,14.4335 27.6241,30.2933 h -28.2322 v 16.3389 h 52.3423 c 0.1569,-1.42754 0.3089,-2.85508 0.3089,-4.28383 v -7.93172 c -1.6797,-29.1783 -21.6713,-54.2393 -52.0431,-54.2393 h -0.6082 v 19.8227 z m 0,100.077 v -19.8227 h 1.22 c 14.0377,0 22.434,-6.34489 26.7045,-18.873 h 22.8949 c -5.3421,24.9005 -25.6414,38.6956 -49.5995,38.6956 h -1.22 z m -28.2371,-69.7842 c 0.6118,-16.8107 11.751,-29.9723 28.2371,-30.2933 v -19.8227 c -32.3556,0.47786 -52.3472,28.0717 -52.3472,59.9495 0,34.734 18.768,59.3171 52.3472,59.9507 v -19.8227 c -19.2326,-0.63473 -28.2371,-16.1784 -28.2371,-33.6226 h 28.2371 v -16.3389 z"
   inkscape:connector-curvature="0"
   style="fill:#1f1a17" />

  <path
   id="path362"
   d="m 1985.53,161.299 h 22.8913 v 15.861 h 0.6118 c 7.3247,-11.261 16.3292,-19.0335 33.7264,-19.0335 13.4307,0 25.9455,6.02753 30.8279,19.0335 7.9366,-11.7389 18.3119,-19.0335 34.3382,-19.0335 23.047,0 36.6249,10.6275 36.6249,38.3831 v 78.5051 h -24.1101 v -66.4548 c 0,-18.0778 -1.0679,-30.6107 -19.9916,-30.6107 -16.3304,0 -23.3511,11.261 -23.3511,30.455 v 66.6105 h -24.1149 v -72.9554 c 0,-15.7005 -4.7291,-24.1101 -19.2278,-24.1101 -12.5148,0 -23.9581,10.6275 -23.9581,29.4993 v 67.5662 h -24.267 v -113.716 z"
   inkscape:connector-curvature="0"
   style="fill:#1f1a17" />

  <path
   id="path364"
   d="m 2217.81,177.949 h 0.7602 c 16.3292,0 26.7094,14.4335 27.4732,30.2933 H 2217.81 v 16.3389 h 52.4992 c 0.1521,-1.42754 0.1521,-2.85508 0.3041,-4.28383 v -7.93172 c -1.6797,-29.1783 -21.6713,-54.2393 -52.0431,-54.2393 h -0.7602 v 19.8227 z m 0,100.077 v -19.8227 h 1.372 c 13.8856,0 22.4352,-6.34489 26.7094,-18.873 h 22.8901 c -5.3409,24.9005 -25.6366,38.6956 -49.5995,38.6956 h -1.372 z m -28.085,-69.7842 c 0.6118,-16.8107 11.7522,-29.9723 28.085,-30.2933 v -19.8227 c -32.2023,0.47786 -52.346,28.0717 -52.346,59.9495 0,34.734 18.9237,59.3171 52.346,59.9507 v -19.8227 c -19.2326,-0.63473 -28.085,-16.1784 -28.085,-33.6226 h 28.085 v -16.3389 z"
   inkscape:connector-curvature="0"
   style="fill:#1f1a17" />

  <path
   id="path366"
   d="m 2289.54,161.299 h 22.8901 v 16.6502 l 0.4598,0.47786 c 7.1739,-12.5281 19.6839,-20.3005 34.0305,-20.3005 23.8108,0 38.7644,13.3221 38.7644,38.8561 v 78.032 h -24.1149 v -71.5279 c -0.455,-17.7652 -7.1679,-25.5376 -21.3624,-25.5376 -16.1784,0 -26.5573,13.3269 -26.5573,29.9771 v 67.0884 h -24.1101 v -113.716 z"
   inkscape:connector-curvature="0"
   style="fill:#1f1a17" />

  <path
   id="path368"
   d="m 149.742,197.616 c -0.15205,43.2992 34.3382,77.238 75.5414,77.238 41.6678,0 75.5462,-33.9388 75.5462,-77.238 V 0 h -37.6977 v 197.616 c 0,21.5712 -16.9362,38.0657 -37.8485,38.0657 -20.1436,0 -37.8449,-17.1281 -37.8449,-38.0657 V 78.827 H 149.742 Z"
   inkscape:connector-curvature="0"
   style="fill:#c4263a" />

  <polygon
   id="polygon370"
   points="0,39.3328 36.3522,39.3328 36.3522,0 0,0 "
   style="fill:#c4263a" />

  <polygon
   id="polygon372"
   points="36.3522,78.6668 74.0439,78.6668 74.0439,39.3328 36.3522,39.3328 "
   style="fill:#c4263a" />

  <polygon
   id="polygon374"
   points="74.0439,39.3328 111.894,39.3328 111.894,0 74.0439,0 "
   style="fill:#c4263a" />

  <polygon
   id="polygon376"
   points="187.439,0 187.439,39.3328 149.742,39.3328 149.742,0 "
   style="fill:#c4263a" />

  <polygon
   id="polygon378"
   points="149.742,39.3328 149.742,78.6668 111.894,78.6668 111.894,39.3328 "
   style="fill:#c4263a" />

  <path
   id="path380"
   d="M 452.069,0.160493 V 197.61649 c 0,129.577 -101.64,234.413 -226.629,234.413 -116.099,0 -212.509,-90.6868 -225.44,-207.605 V 78.666493 H 36.3522 V 197.61549 c 0,108.009 85.0056,195.081 189.088,195.081 104.081,0 188.779,-87.0715 188.779,-195.081 V -5.07e-4 l 37.8497,0.160493 z"
   inkscape:connector-curvature="0"
   style="fill:#c4263a" />

  <path
   id="path382"
   d="m 338.678,0 v 197.616 c 0,64.8704 -50.9751,116.571 -113.395,116.571 -62.5704,0 -113.39,-51.7004 -113.39,-116.571 V 78.51 H 74.0433 v 119.106 c 0,86.438 67.9138,155.748 151.24,155.748 83.3307,0 151.092,-69.3099 151.092,-155.748 V 0.16 L 338.6776,-4.93e-4 Z"
   inkscape:connector-curvature="0"
   style="fill:#c4263a" />

 </g>
    </g>
  </g>
</svg>
